<svg width="1306" height="539" viewBox="0 0 1306 539" fill="none" xmlns="http://www.w3.org/2000/svg">
<path d="M175.863 538.836C118.669 538.836 75.1471 522.202 45.2969 488.934C15.6745 455.438 0.863281 407.472 0.863281 345.037C0.863281 281.463 16.3581 232.586 47.3477 198.406C78.5651 164.227 123.568 147.137 182.357 147.137C222.234 147.137 258.122 154.542 290.023 169.354L265.756 233.953C231.804 220.737 203.777 214.129 181.674 214.129C116.277 214.129 83.5781 257.537 83.5781 344.354C83.5781 386.736 91.6673 418.637 107.846 440.057C124.252 461.248 148.178 471.844 179.623 471.844C215.398 471.844 249.236 462.957 281.137 445.184V515.252C266.781 523.683 251.4 529.721 234.994 533.367C218.816 537.013 199.105 538.836 175.863 538.836ZM705.307 342.303C705.307 404.054 689.47 452.247 657.797 486.883C626.124 521.518 582.032 538.836 525.521 538.836C490.202 538.836 458.985 530.861 431.869 514.91C404.753 498.96 383.904 476.059 369.32 446.209C354.737 416.359 347.445 381.723 347.445 342.303C347.445 281.007 363.168 233.156 394.613 198.748C426.059 164.34 470.378 147.137 527.572 147.137C582.26 147.137 625.554 164.796 657.455 200.115C689.356 235.206 705.307 282.602 705.307 342.303ZM430.16 342.303C430.16 429.575 462.403 473.211 526.889 473.211C590.691 473.211 622.592 429.575 622.592 342.303C622.592 255.942 590.463 212.762 526.205 212.762C492.481 212.762 467.986 223.927 452.719 246.258C437.68 268.589 430.16 300.604 430.16 342.303ZM878.256 532H797.934V0.164062H878.256V532ZM1158.53 538.836C1099.74 538.836 1053.71 521.746 1020.44 487.566C987.403 453.159 970.883 405.877 970.883 345.721C970.883 283.969 986.264 235.434 1017.03 200.115C1047.79 164.796 1090.06 147.137 1143.83 147.137C1193.73 147.137 1233.15 162.29 1262.09 192.596C1291.03 222.902 1305.5 264.601 1305.5 317.693V361.102H1053.6C1054.74 397.788 1064.65 426.043 1083.33 445.867C1102.02 465.464 1128.34 475.262 1162.29 475.262C1184.62 475.262 1205.36 473.211 1224.5 469.109C1243.86 464.78 1264.6 457.716 1286.7 447.918V513.201C1267.11 522.544 1247.28 529.152 1227.23 533.025C1207.18 536.899 1184.28 538.836 1158.53 538.836ZM1143.83 207.977C1118.31 207.977 1097.8 216.066 1082.31 232.244C1067.04 248.423 1057.93 272.007 1054.96 302.996H1226.55C1226.09 271.779 1218.57 248.195 1203.99 232.244C1189.4 216.066 1169.35 207.977 1143.83 207.977Z" fill="black"/>
</svg>
