<svg width="3483" height="539" viewBox="0 0 3483 539" fill="none" xmlns="http://www.w3.org/2000/svg">
<path d="M175.863 538.836C118.669 538.836 75.1471 522.202 45.2969 488.934C15.6745 455.438 0.863281 407.472 0.863281 345.037C0.863281 281.463 16.3581 232.586 47.3477 198.406C78.5651 164.227 123.568 147.137 182.357 147.137C222.234 147.137 258.122 154.542 290.023 169.354L265.756 233.953C231.804 220.737 203.777 214.129 181.674 214.129C116.277 214.129 83.5781 257.537 83.5781 344.354C83.5781 386.736 91.6673 418.637 107.846 440.057C124.252 461.248 148.178 471.844 179.623 471.844C215.398 471.844 249.236 462.957 281.137 445.184V515.252C266.781 523.683 251.4 529.721 234.994 533.367C218.816 537.013 199.105 538.836 175.863 538.836ZM705.307 342.303C705.307 404.054 689.47 452.247 657.797 486.883C626.124 521.518 582.032 538.836 525.521 538.836C490.202 538.836 458.985 530.861 431.869 514.91C404.753 498.96 383.904 476.059 369.32 446.209C354.737 416.359 347.445 381.723 347.445 342.303C347.445 281.007 363.168 233.156 394.613 198.748C426.059 164.34 470.378 147.137 527.572 147.137C582.26 147.137 625.554 164.796 657.455 200.115C689.356 235.206 705.307 282.602 705.307 342.303ZM430.16 342.303C430.16 429.575 462.403 473.211 526.889 473.211C590.691 473.211 622.592 429.575 622.592 342.303C622.592 255.942 590.463 212.762 526.205 212.762C492.481 212.762 467.986 223.927 452.719 246.258C437.68 268.589 430.16 300.604 430.16 342.303ZM878.256 532H797.934V0.164062H878.256V532ZM1158.53 538.836C1099.74 538.836 1053.71 521.746 1020.44 487.566C987.403 453.159 970.883 405.877 970.883 345.721C970.883 283.969 986.264 235.434 1017.03 200.115C1047.79 164.796 1090.06 147.137 1143.83 147.137C1193.73 147.137 1233.15 162.29 1262.09 192.596C1291.03 222.902 1305.5 264.601 1305.5 317.693V361.102H1053.6C1054.74 397.788 1064.65 426.043 1083.33 445.867C1102.02 465.464 1128.34 475.262 1162.29 475.262C1184.62 475.262 1205.36 473.211 1224.5 469.109C1243.86 464.78 1264.6 457.716 1286.7 447.918V513.201C1267.11 522.544 1247.28 529.152 1227.23 533.025C1207.18 536.899 1184.28 538.836 1158.53 538.836ZM1143.83 207.977C1118.31 207.977 1097.8 216.066 1082.31 232.244C1067.04 248.423 1057.93 272.007 1054.96 302.996H1226.55C1226.09 271.779 1218.57 248.195 1203.99 232.244C1189.4 216.066 1169.35 207.977 1143.83 207.977ZM1911.17 532H1830.5V299.578C1830.5 270.411 1824.58 248.65 1812.73 234.295C1801.11 219.939 1782.54 212.762 1757.02 212.762C1723.29 212.762 1698.45 222.902 1682.5 243.182C1666.78 263.234 1658.92 296.958 1658.92 344.354V532H1578.6V0.164062H1658.92V135.174C1658.92 156.821 1657.55 179.949 1654.82 204.559H1659.95C1670.88 186.329 1686.04 172.202 1705.4 162.176C1725 152.15 1747.79 147.137 1773.76 147.137C1865.37 147.137 1911.17 193.279 1911.17 285.564V532ZM2259.46 532L2243.39 479.363H2240.66C2222.43 502.378 2204.09 518.1 2185.63 526.531C2167.17 534.734 2143.47 538.836 2114.54 538.836C2077.39 538.836 2048.34 528.81 2027.38 508.758C2006.64 488.706 1996.27 460.337 1996.27 423.65C1996.27 384.686 2010.74 355.291 2039.68 335.467C2068.62 315.643 2112.71 304.819 2171.96 302.996L2237.24 300.945V280.779C2237.24 256.626 2231.54 238.624 2220.15 226.775C2208.99 214.699 2191.55 208.66 2167.86 208.66C2148.49 208.66 2129.92 211.508 2112.14 217.205C2094.37 222.902 2077.28 229.624 2060.87 237.371L2034.9 179.949C2055.4 169.24 2077.85 161.15 2102.23 155.682C2126.61 149.985 2149.63 147.137 2171.27 147.137C2219.35 147.137 2255.58 157.618 2279.96 178.582C2304.57 199.546 2316.88 232.472 2316.88 277.361V532H2259.46ZM2139.83 477.312C2168.99 477.312 2192.35 469.223 2209.9 453.045C2227.67 436.639 2236.56 413.738 2236.56 384.344V351.531L2188.02 353.582C2150.2 354.949 2122.62 361.329 2105.31 372.723C2088.22 383.888 2079.67 401.092 2079.67 424.334C2079.67 441.196 2084.68 454.298 2094.71 463.641C2104.74 472.755 2119.78 477.312 2139.83 477.312ZM2620.74 147.137C2636.91 147.137 2650.24 148.276 2660.73 150.555L2652.87 225.408C2641.47 222.674 2629.62 221.307 2617.32 221.307C2585.19 221.307 2559.1 231.788 2539.05 252.752C2519.22 273.715 2509.31 300.945 2509.31 334.441V532H2428.99V153.973H2491.88L2502.47 220.623H2506.58C2519.11 198.064 2535.4 180.177 2555.45 166.961C2575.73 153.745 2597.49 147.137 2620.74 147.137ZM2922.88 147.137C2939.06 147.137 2952.39 148.276 2962.88 150.555L2955.01 225.408C2943.62 222.674 2931.77 221.307 2919.47 221.307C2887.34 221.307 2861.25 231.788 2841.2 252.752C2821.37 273.715 2811.46 300.945 2811.46 334.441V532H2731.14V153.973H2794.03L2804.62 220.623H2808.72C2821.26 198.064 2837.55 180.177 2857.6 166.961C2877.88 153.745 2899.64 147.137 2922.88 147.137ZM3113.61 532H3033.29V153.973H3113.61V532ZM3028.5 53.8262C3028.5 39.4707 3032.37 28.4193 3040.12 20.6719C3048.1 12.9245 3059.38 9.05078 3073.96 9.05078C3088.09 9.05078 3099.02 12.9245 3106.77 20.6719C3114.75 28.4193 3118.73 39.4707 3118.73 53.8262C3118.73 67.498 3114.75 78.3216 3106.77 86.2969C3099.02 94.0443 3088.09 97.918 3073.96 97.918C3059.38 97.918 3048.1 94.0443 3040.12 86.2969C3032.37 78.3216 3028.5 67.498 3028.5 53.8262ZM3482.75 424.334C3482.75 461.248 3469.3 489.617 3442.42 509.441C3415.53 529.038 3377.02 538.836 3326.89 538.836C3276.53 538.836 3236.08 531.202 3205.55 515.936V446.551C3249.98 467.059 3291.34 477.312 3329.62 477.312C3379.07 477.312 3403.79 462.387 3403.79 432.537C3403.79 422.967 3401.06 414.992 3395.59 408.611C3390.12 402.231 3381.12 395.623 3368.59 388.787C3356.06 381.951 3338.62 374.204 3316.29 365.545C3272.77 348.683 3243.26 331.821 3227.77 314.959C3212.5 298.097 3204.87 276.222 3204.87 249.334C3204.87 216.977 3217.86 191.912 3243.83 174.139C3270.04 156.137 3305.58 147.137 3350.47 147.137C3394.91 147.137 3436.95 156.137 3476.6 174.139L3450.62 234.637C3409.83 217.775 3375.54 209.344 3347.74 209.344C3305.36 209.344 3284.16 221.421 3284.16 245.574C3284.16 257.423 3289.63 267.449 3300.57 275.652C3311.74 283.855 3335.89 295.135 3373.03 309.49C3404.25 321.567 3426.92 332.618 3441.05 342.645C3455.18 352.671 3465.66 364.292 3472.49 377.508C3479.33 390.496 3482.75 406.105 3482.75 424.334Z" fill="white"/>
</svg>
